<svg xmlns="http://www.w3.org/2000/svg" viewBox="0 0 410 404"><defs><linearGradient id="a" x1="6.553" x2="438.198" y1="-4.565" y2="200.499" gradientUnits="userSpaceOnUse"><stop stop-color="#41d1ff"/><stop offset="1" stop-color="#bd34fe"/></linearGradient><linearGradient id="b" x1="194.651" x2="236.076" y1="22.85" y2="338.81" gradientUnits="userSpaceOnUse"><stop stop-color="#ffea83"/><stop offset=".083" stop-color="#ffdd35"/><stop offset=".232" stop-color="#ffa800"/><stop offset="1" stop-color="#ff2e00"/></linearGradient></defs><path fill="url(#a)" d="M399.641 59.525 215.643 388.545c-3.963 7.086-13.985 7.106-17.978.037L9.357 59.55c-4.278-7.623 2.18-16.72 10.783-15.346l178.322 28.828a10 10 0 0 0 3.155-.004l187.245-28.89c8.61-1.33 15.053 7.61 10.746 15.235Z"/><path fill="url(#b)" d="M292.965 1.574 156.789 28.214a5 5 0 0 0-3.974 4.743l-8.242 198.49a5 5 0 0 0 6.084 5.052l38.284-8.535c3.172-.707 6.032 2.074 5.388 5.266l-11.384 56.647c-.68 3.385 2.88 6.136 6.046 4.74l23.66-10.361c2.936-1.285 6.283.62 6.39 3.783l1.516 45.151c.112 3.347 4.385 4.663 6.274 1.934l3.313-4.953 81.943-238.062c1.152-3.349-1.66-6.722-5.18-6.05l-39.5 7.683c-3.24.63-5.997-2.26-5.084-5.443l25.75-90.415c.932-3.27-1.93-6.337-5.25-5.63Z"/></svg>
